<svg width="210" height="75" viewBox="0 0 210 75" fill="none" xmlns="http://www.w3.org/2000/svg">
<path d="M56.3098 39.3171L49.3386 39.3069C49.2519 39.7965 49.15 40.281 49.0327 40.7654L49.0174 40.8317L49.0021 40.898C48.4003 43.1928 47.4416 45.3245 46.1463 47.2368C44.851 49.1492 43.2395 50.8116 41.3578 52.1732C37.6758 54.8403 33.1117 56.2478 28.1549 56.2478C23.1981 56.2478 18.6339 54.8403 14.952 52.1732C13.0703 50.8116 11.4588 49.1492 10.1635 47.2368C8.86821 45.3245 7.90948 43.1928 7.30773 40.898L7.29243 40.8317L7.27713 40.7654C7.15984 40.281 7.05785 39.7965 6.97116 39.3069L0 39.3171C0.137689 42.9378 0.841435 46.3648 2.10104 49.5316C3.46263 52.9484 5.43107 55.9622 7.95028 58.4967C10.4746 61.0312 13.468 63.0048 16.8542 64.3613C20.3372 65.7586 24.1364 66.4623 28.1549 66.4623C32.1734 66.4623 35.9777 65.7535 39.4556 64.3613C42.8417 63.0048 45.8403 61.0312 48.3595 58.4967C50.8838 55.9622 52.8523 52.9484 54.2088 49.5316C55.4684 46.3648 56.1772 42.9327 56.3098 39.3171ZM54.2088 17.4041C52.8472 13.9874 50.8787 10.9735 48.3595 8.43904C45.8352 5.90454 42.8417 3.931 39.4556 2.5745C35.9726 1.17721 32.1734 0.473465 28.1549 0.473465C24.1364 0.473465 20.3321 1.18231 16.8542 2.5745C13.468 3.931 10.4695 5.90454 7.95028 8.43904C5.42598 10.9735 3.45753 13.9874 2.10104 17.4041C0.841435 20.5659 0.137689 23.9979 0 27.6186L6.97116 27.6288C7.05785 27.1393 7.15984 26.6548 7.27713 26.1704L7.29243 26.1041L7.30773 26.0378C7.90948 23.743 8.86821 21.6113 10.1635 19.699C11.4588 17.7866 13.0703 16.1241 14.952 14.7626C18.6339 12.0955 23.1981 10.688 28.1549 10.688C33.1117 10.688 37.6758 12.0955 41.3578 14.7626C43.2395 16.1241 44.851 17.7866 46.1463 19.699C47.4416 21.6113 48.4003 23.743 49.0021 26.0378L49.0174 26.1041L49.0327 26.1704C49.15 26.6548 49.2519 27.1393 49.3386 27.6288L56.3098 27.6186C56.1772 23.9979 55.4684 20.571 54.2088 17.4041ZM37.0027 30.8059C39.3332 35.8545 37.8288 41.4182 33.076 45.3296C28.3232 49.241 22.5708 49.6438 18.0679 46.3801C17.5528 45.9874 17.0582 45.5692 16.5941 45.1307L22.2751 40.4747L21.2092 39.1743L21.1837 39.1386C21.1123 39.052 21.0461 38.9602 20.9747 38.8684C20.9645 38.8531 20.9543 38.8378 20.939 38.8225C20.9339 38.8123 20.9237 38.8021 20.9186 38.797L20.7197 38.5216C20.1791 37.7669 19.6998 36.956 19.2867 36.0993C16.9715 31.0405 18.4911 25.4819 23.2542 21.5858C28.0223 17.6897 33.7747 17.3073 38.2674 20.5863C38.7723 20.9739 39.2567 21.3818 39.7106 21.8204L34.0449 26.461L35.0853 27.7665C35.1566 27.8532 35.228 27.945 35.2994 28.0419L35.5646 28.404C36.1001 29.1332 36.5845 29.9441 37.0027 30.8059Z" fill="#006AB5"/>
<path d="M72.5419 58.0582C70.9406 57.6196 69.5892 56.9108 68.4877 55.9367L72.2818 51.3573C73.0059 52.01 73.8474 52.5353 74.7959 52.9331C75.7495 53.3359 76.749 53.5348 77.7996 53.5348C78.2738 53.5348 78.6716 53.4889 78.9827 53.4022C79.2937 53.3155 79.4518 53.1727 79.4518 52.9688C79.4518 52.7444 79.2376 52.5353 78.8144 52.3466C78.386 52.1579 77.6619 51.9641 76.6368 51.7653C73.9341 51.24 71.9605 50.4802 70.7213 49.4908C69.4821 48.5015 68.865 47.2419 68.865 45.7171C68.865 44.6156 69.2322 43.5702 69.9717 42.5809C70.7111 41.5916 71.8432 40.7807 73.368 40.1382C74.8928 39.5007 76.7847 39.1794 79.0387 39.1794C81.2418 39.1794 83.0878 39.4446 84.5769 39.9699C86.066 40.4951 87.2389 41.1479 88.0854 41.923L84.5565 46.0894C83.404 44.9369 81.7007 44.3606 79.4518 44.3606C78.7736 44.3606 78.2891 44.4218 77.9882 44.5493C77.6874 44.6768 77.5395 44.8349 77.5395 45.0389C77.5395 45.3398 78.3044 45.5896 79.8292 45.7885C82.7054 46.1914 84.8115 46.8849 86.1374 47.8743C87.4633 48.8636 88.1262 50.2201 88.1262 51.9488C88.1262 53.902 87.3256 55.5186 85.7243 56.7935C84.1231 58.0684 81.6956 58.7109 78.437 58.7109C76.1065 58.716 74.1431 58.4967 72.5419 58.0582ZM106.918 41.0459C108.458 42.2851 109.254 43.7946 109.305 45.5692L101.344 47.8998C101.421 45.9721 100.916 45.0083 99.84 45.0083C99.0649 45.0083 98.509 45.3041 98.1674 45.8905C97.8308 46.477 97.6625 47.5377 97.6625 49.0625C97.6625 50.5669 97.8461 51.5766 98.2082 52.1018C98.5702 52.6271 99.1006 52.8923 99.8043 52.8923C100.33 52.8923 100.732 52.6832 101.008 52.2701C101.283 51.8571 101.446 51.2349 101.497 50.4139L109.233 52.8158C109.233 53.8918 108.866 54.876 108.127 55.7633C107.387 56.6507 106.311 57.3646 104.899 57.9052C103.486 58.4406 101.798 58.7109 99.8502 58.7109C96.2958 58.7109 93.5981 57.8746 91.7572 56.1968C89.9162 54.519 88.9983 52.1018 88.9983 48.9503C88.9983 45.8446 89.906 43.4427 91.7215 41.7394C93.5369 40.0362 96.0969 39.1845 99.4015 39.1845C102.869 39.1896 105.378 39.8067 106.918 41.0459ZM112.028 36.186C111.314 35.6352 110.957 34.7071 110.957 33.4067C110.957 32.1063 111.314 31.1782 112.028 30.6274C112.742 30.0767 113.951 29.8013 115.654 29.8013C117.357 29.8013 118.566 30.0767 119.28 30.6274C119.994 31.1782 120.351 32.1063 120.351 33.4067C120.351 34.7071 119.994 35.6352 119.28 36.186C118.566 36.7367 117.357 37.0121 115.654 37.0121C113.946 37.0121 112.742 36.7367 112.028 36.186ZM119.968 58.3386H111.329V39.5619H119.968V58.3386ZM142.386 50.6076H130.443C130.57 51.5358 130.83 52.1579 131.233 52.4843C131.631 52.8107 132.233 52.9739 133.033 52.9739C134.257 52.9739 135.012 52.4333 135.287 51.3573L142.233 53.2339C141.805 55.0341 140.764 56.4008 139.097 57.3289C137.429 58.2571 135.41 58.716 133.033 58.716C129.479 58.716 126.781 57.8797 124.94 56.2019C123.099 54.5241 122.181 52.1069 122.181 48.9554C122.181 45.8497 123.089 43.4478 124.905 41.7445C126.72 40.0413 129.28 39.1896 132.585 39.1896C135.813 39.1896 138.286 40.0158 139.999 41.668C141.713 43.3203 142.57 45.5488 142.57 48.3536C142.575 49.3022 142.514 50.0569 142.386 50.6076ZM131.121 45.4622C130.769 45.8395 130.545 46.4872 130.443 47.4153H134.497C134.42 46.5637 134.242 45.9313 133.951 45.5182C133.661 45.1052 133.217 44.8961 132.62 44.8961C131.973 44.8961 131.473 45.0848 131.121 45.4622ZM163.626 40.8419C164.666 41.9434 165.186 43.4937 165.186 45.4979V58.3386H156.548V47.7468C156.548 46.9206 156.446 46.3495 156.247 46.0384C156.048 45.7273 155.706 45.5692 155.232 45.5692C154.605 45.5692 154.151 45.8089 153.86 46.2832C153.575 46.7575 153.427 47.4969 153.427 48.5015V58.3386H144.788V39.5619H152.56L152.748 43.6569C153.299 42.2035 154.125 41.0969 155.227 40.332C156.328 39.567 157.68 39.1845 159.281 39.1845C161.137 39.1896 162.586 39.7404 163.626 40.8419ZM185.294 41.0459C186.834 42.2851 187.63 43.7946 187.681 45.5692L179.72 47.8998C179.797 45.9721 179.292 45.0083 178.216 45.0083C177.441 45.0083 176.885 45.3041 176.543 45.8905C176.207 46.477 176.038 47.5377 176.038 49.0625C176.038 50.5669 176.222 51.5766 176.584 52.1018C176.946 52.6271 177.476 52.8923 178.18 52.8923C178.705 52.8923 179.108 52.6832 179.384 52.2701C179.659 51.8571 179.822 51.2349 179.873 50.4139L187.609 52.8158C187.609 53.8918 187.242 54.876 186.503 55.7633C185.763 56.6507 184.687 57.3646 183.275 57.9052C181.862 58.4406 180.174 58.7109 178.226 58.7109C174.672 58.7109 171.974 57.8746 170.133 56.1968C168.292 54.519 167.374 52.1018 167.374 48.9503C167.374 45.8446 168.282 43.4427 170.097 41.7394C171.913 40.0362 174.473 39.1845 177.777 39.1845C181.245 39.1896 183.754 39.8067 185.294 41.0459ZM209.196 50.6076H197.253C197.38 51.5358 197.64 52.1579 198.043 52.4843C198.441 52.8107 199.043 52.9739 199.843 52.9739C201.067 52.9739 201.822 52.4333 202.097 51.3573L209.043 53.2339C208.615 55.0341 207.574 56.4008 205.907 57.3289C204.239 58.2571 202.22 58.716 199.843 58.716C196.289 58.716 193.591 57.8797 191.75 56.2019C189.909 54.5241 188.991 52.1069 188.991 48.9554C188.991 45.8497 189.899 43.4478 191.714 41.7445C193.53 40.0413 196.09 39.1896 199.394 39.1896C202.623 39.1896 205.096 40.0158 206.809 41.668C208.523 43.3203 209.38 45.5488 209.38 48.3536C209.385 49.3022 209.318 50.0569 209.196 50.6076ZM197.931 45.4622C197.579 45.8395 197.355 46.4872 197.253 47.4153H201.307C201.23 46.5637 201.052 45.9313 200.761 45.5182C200.47 45.1052 200.027 44.8961 199.43 44.8961C198.777 44.8961 198.278 45.0848 197.931 45.4622Z" fill="#006AB5"/>
<path d="M78.9622 22.2182C78.335 22.2182 77.8403 22.0601 77.4986 21.749C77.1569 21.443 76.9326 20.9688 76.8153 20.3007C76.7082 19.7194 76.6572 18.8881 76.6572 17.7713C76.6572 16.6545 76.7082 15.8233 76.8153 15.2419C76.9377 14.5739 77.162 14.0996 77.4986 13.7936C77.8454 13.4826 78.335 13.3245 78.9622 13.3245C79.5895 13.3245 80.0841 13.4826 80.4258 13.7936C80.7675 14.0996 80.9867 14.5739 81.1091 15.2419C81.2162 15.8284 81.2672 16.6596 81.2672 17.7713C81.2672 18.8881 81.2162 19.7143 81.1091 20.3007C80.9867 20.9739 80.7624 21.443 80.4258 21.749C80.079 22.0652 79.5895 22.2182 78.9622 22.2182ZM78.9622 14.3342C78.7072 14.3342 78.3656 14.3699 78.1769 14.5433C78.0647 14.6453 77.9066 14.8798 77.8097 15.4204C77.7128 15.9406 77.6669 16.731 77.6669 17.7713C77.6669 18.8116 77.7128 19.6072 77.8097 20.1222C77.9066 20.6628 78.0647 20.8974 78.1769 20.9994C78.3656 21.1727 78.7123 21.2084 78.9622 21.2084C79.2172 21.2084 79.5589 21.1727 79.7475 20.9994C79.8597 20.8974 80.0127 20.6628 80.1147 20.1222C80.2116 19.6021 80.2575 18.8116 80.2575 17.7713C80.2575 16.731 80.2116 15.9406 80.1147 15.4204C80.0178 14.8798 79.8597 14.6453 79.7475 14.5433C79.5589 14.3699 79.2172 14.3342 78.9622 14.3342ZM102.13 21.9581C101.314 21.9581 100.676 21.5654 100.289 20.8209C99.9471 20.1681 99.7788 19.2196 99.7788 17.9192V17.6183C99.7788 16.2669 99.9522 15.2929 100.314 14.6504C100.717 13.9262 101.344 13.5437 102.13 13.5437C102.956 13.5437 103.609 13.9058 104.027 14.5943C104.404 15.2215 104.588 16.2567 104.588 17.7662C104.588 19.2757 104.404 20.3109 104.022 20.9229C103.609 21.6011 102.951 21.9581 102.13 21.9581ZM102.13 14.5586C101.712 14.5586 101.426 14.7371 101.202 15.145C100.931 15.6295 100.794 16.4607 100.794 17.6234V17.9243C100.794 19.036 100.926 19.857 101.186 20.3568C101.4 20.7648 101.691 20.9484 102.125 20.9484C102.599 20.9484 102.925 20.775 103.16 20.3976C103.349 20.0916 103.573 19.393 103.573 17.7713C103.573 16.1496 103.349 15.4357 103.16 15.1246C102.925 14.7371 102.599 14.5586 102.13 14.5586ZM127.352 16.7361H122.181L122.243 16.1751C122.355 15.1297 122.62 14.3954 123.053 13.9313C123.502 13.452 124.134 13.2072 124.925 13.2072C125.889 13.2072 126.409 13.661 126.674 14.0435C127.016 14.5382 127.225 15.2368 127.306 16.1853L127.352 16.7361ZM123.334 15.7264H126.225C126.144 15.247 126.011 14.8747 125.838 14.6249C125.715 14.4515 125.491 14.222 124.92 14.222C124.41 14.222 124.043 14.3546 123.788 14.6249C123.64 14.7829 123.456 15.0991 123.334 15.7264ZM78.9622 27.7359C75.5149 27.7359 72.7968 26.8333 70.8793 25.0484C68.9517 23.2534 67.9777 20.7036 67.9777 17.4704C67.9777 14.2322 68.9517 11.6824 70.8793 9.89243C72.7968 8.10757 75.5149 7.20494 78.9622 7.20494C82.4095 7.20494 85.1276 8.10757 87.0451 9.89243C88.9727 11.6875 89.9468 14.2373 89.9468 17.4704C89.9468 20.7087 88.9727 23.2585 87.0451 25.0484C85.1276 26.8333 82.4095 27.7359 78.9622 27.7359ZM78.9622 8.20956C75.7801 8.20956 73.2965 9.0204 71.5729 10.6268C69.8594 12.2229 68.9925 14.5229 68.9925 17.4653C68.9925 20.4078 69.8594 22.7077 71.5729 24.3039C73.2965 25.9103 75.7801 26.7211 78.9622 26.7211C82.1444 26.7211 84.6279 25.9103 86.3515 24.3039C88.065 22.7077 88.9319 20.4078 88.9319 17.4653C88.9319 14.5229 88.065 12.2229 86.3515 10.6268C84.6279 9.0255 82.1444 8.20956 78.9622 8.20956ZM100.794 35.2477H91.1452V7.57211H99.7176L99.8604 10.3871C100.299 9.68845 100.829 9.08159 101.451 8.58693C102.604 7.6639 104.006 7.19984 105.618 7.19984C108.081 7.19984 110.003 8.11777 111.34 9.92303C112.64 11.6824 113.298 14.1812 113.298 17.3582C113.298 20.5812 112.625 23.1361 111.304 24.9414C109.942 26.7976 108.02 27.741 105.582 27.741C104.205 27.741 103.017 27.3943 102.058 26.7058C101.589 26.3692 101.166 25.9715 100.794 25.5074V35.2477ZM92.16 34.2328H99.7839V21.3614L100.753 23.4931C101.212 24.5079 101.854 25.3136 102.65 25.8797C103.435 26.4406 104.425 26.7262 105.587 26.7262C107.714 26.7262 109.315 25.946 110.493 24.3447C111.686 22.7128 112.293 20.3619 112.293 17.3582C112.293 14.4056 111.702 12.1057 110.534 10.5248C109.386 8.9694 107.78 8.21466 105.628 8.21466C104.251 8.21466 103.063 8.60733 102.094 9.38247C101.115 10.1678 100.391 11.2591 99.9522 12.636L99.1056 15.2674L98.764 8.59203H92.1651V34.2328H92.16ZM125.333 27.7359C121.666 27.7359 118.826 26.8435 116.898 25.0892C114.955 23.3197 113.971 20.7546 113.971 17.4653C113.971 14.2322 114.94 11.6824 116.852 9.88733C118.754 8.10247 121.457 7.19474 124.879 7.19474C128.229 7.19474 130.84 8.07697 132.646 9.81594C134.456 11.56 135.374 13.9313 135.374 16.8636C135.374 17.8631 135.308 18.6331 135.175 19.2298L135.083 19.6225H123.354C123.497 20.1987 123.696 20.469 123.854 20.6016C124.16 20.8515 124.66 20.979 125.338 20.979C126.45 20.979 126.745 20.6985 126.99 20.0712L127.148 19.6684L135.155 21.3563L135.037 21.8612C134.578 23.799 133.441 25.2881 131.656 26.2825C129.912 27.2464 127.791 27.7359 125.333 27.7359ZM124.884 8.20956C121.727 8.20956 119.259 9.0204 117.551 10.6268C115.853 12.2229 114.991 14.5229 114.991 17.4653C114.991 20.4588 115.863 22.7689 117.587 24.3396C119.32 25.9205 121.931 26.7211 125.338 26.7211C127.618 26.7211 129.576 26.2775 131.157 25.3952C132.544 24.6252 133.451 23.5492 133.905 22.1315L127.75 20.8362C127.296 21.6521 126.567 21.9938 125.338 21.9938C124.42 21.9938 123.706 21.7898 123.217 21.392C122.707 20.979 122.39 20.2599 122.248 19.189L122.171 18.6127H134.267C134.334 18.1487 134.369 17.5622 134.369 16.8687C134.369 14.222 133.559 12.0955 131.952 10.5503C130.341 8.9949 127.964 8.20956 124.884 8.20956ZM157.986 27.3586H148.337V16.2669C148.337 15.3184 148.2 14.9614 148.118 14.8339C148.077 14.7677 147.965 14.5994 147.531 14.5994C146.945 14.5994 146.716 14.8645 146.593 15.0685C146.43 15.3388 146.236 15.8947 146.236 17.0217V27.3688H136.588V7.58231H145.354L145.476 10.2545C145.966 9.52526 146.557 8.91841 147.246 8.44414C148.429 7.62311 149.893 7.21004 151.591 7.21004C153.58 7.21004 155.16 7.82199 156.298 9.0204C157.425 10.2137 157.996 11.8966 157.996 14.0231V27.3586H157.986ZM149.347 26.3488H156.971V14.0129C156.971 12.1516 156.491 10.7033 155.548 9.70374C154.6 8.69912 153.304 8.20956 151.581 8.20956C150.091 8.20956 148.822 8.56653 147.812 9.26518C146.802 9.96382 146.027 11.0041 145.517 12.3504L144.65 14.6402L144.375 8.58183H137.592V26.3437H145.216V17.0115C145.216 15.9049 145.379 15.094 145.721 14.5331C146.098 13.9058 146.726 13.5743 147.526 13.5743C148.342 13.5743 148.76 13.9568 148.964 14.2781C149.225 14.6861 149.347 15.3133 149.347 16.2618V26.3488Z" fill="#006AB5"/>
<path d="M120.417 62.9079V70.185C120.417 71.6078 120.029 72.694 119.259 73.4335C118.489 74.1729 117.403 74.5452 116.001 74.5452C114.598 74.5452 113.512 74.1729 112.737 73.4335C111.962 72.694 111.574 71.6078 111.574 70.185V62.9079H112.441V70.0116C112.441 71.2406 112.747 72.1688 113.354 72.8011C113.961 73.4335 114.843 73.7496 116.001 73.7496C117.158 73.7496 118.041 73.4335 118.642 72.8011C119.244 72.1688 119.545 71.2406 119.545 70.0116V62.9079H120.417ZM134.783 62.9079V74.3718H133.946V65.8249L134.048 63.7391H134.033L129.846 74.3718H129.045L124.859 63.7391H124.843L124.945 65.8249V74.3718H124.114V62.9079H125.415L128.872 71.5925L129.443 73.3468H129.459L130.014 71.6078L133.472 62.9079H134.783ZM142.615 74.5095C141.657 74.5095 140.82 74.3055 140.117 73.9026C139.408 73.4947 138.867 72.9184 138.485 72.1739C138.102 71.4293 137.914 70.5369 137.914 69.5068C137.914 68.4767 138.102 67.5893 138.485 66.8397C138.867 66.0951 139.413 65.5189 140.117 65.1109C140.82 64.7081 141.657 64.5041 142.615 64.5041C143.59 64.5041 144.426 64.7081 145.125 65.1109C145.823 65.5189 146.369 66.09 146.746 66.8397C147.129 67.5842 147.317 68.4767 147.317 69.5068C147.317 70.5369 147.124 71.4242 146.746 72.1739C146.364 72.9184 145.823 73.4947 145.125 73.9026C144.426 74.3106 143.59 74.5095 142.615 74.5095ZM142.615 73.7649C143.401 73.7649 144.084 73.5916 144.655 73.255C145.226 72.9133 145.67 72.4237 145.986 71.7863C146.297 71.1488 146.455 70.389 146.455 69.5119C146.455 68.6194 146.297 67.8596 145.986 67.2273C145.675 66.5949 145.232 66.1104 144.655 65.7688C144.084 65.4271 143.401 65.2588 142.615 65.2588C141.84 65.2588 141.162 65.4322 140.581 65.7688C139.999 66.1104 139.556 66.5949 139.245 67.2273C138.934 67.8596 138.775 68.6194 138.775 69.5119C138.775 70.3941 138.934 71.1488 139.245 71.7863C139.556 72.4237 140.004 72.9133 140.581 73.255C141.162 73.5916 141.84 73.7649 142.615 73.7649ZM158.179 64.6469V74.3769H157.017L151.718 66.6459L151.06 65.5699H151.045L151.096 66.6306V74.3769H150.244V64.6469H151.407L156.634 72.2912L157.364 73.4539H157.379L157.328 72.3931V64.6469H158.179ZM168.792 64.6469V65.3914H160.505V64.6469H168.792ZM165.095 64.9732V74.3718H164.228V64.9732H165.095ZM171.122 74.3718V64.6418H174.998C176.028 64.6418 176.844 64.8865 177.446 65.3812C178.048 65.8708 178.348 66.5541 178.348 67.421C178.348 68.288 178.048 68.9713 177.446 69.4609C176.844 69.9504 176.028 70.2003 174.998 70.2003H171.994V74.3718H171.122ZM171.989 69.4558H174.978C175.788 69.4558 176.405 69.2824 176.834 68.9356C177.262 68.5888 177.476 68.084 177.476 67.4261C177.476 66.7785 177.262 66.2787 176.834 65.9218C176.405 65.5699 175.783 65.3914 174.978 65.3914H171.989V69.4558ZM177.859 74.3718L174.891 69.9759L175.62 69.6088L178.884 74.3667H177.859V74.3718ZM181.454 74.3718V64.6418H188.471V65.3863H182.321V69.0529H187.186V69.7975H182.321V73.6171H188.716V74.3616H181.454V74.3718ZM185.712 60.5264H186.635L185.192 63.2037H184.478L185.712 60.5264ZM190.052 74.3718L194.081 64.6418H195.106L199.155 74.3718H198.232L194.983 66.4521L194.601 65.4424L194.218 66.4521L190.97 74.3718H190.052ZM191.878 71.3477V70.6032H197.314V71.3477H191.878ZM202.301 73.6273H208.365V74.3718H201.429V64.6418H202.296V73.6273H202.301Z" fill="#5E5F5F"/>
</svg>
