<?xml version="1.0" encoding="UTF-8" standalone="no"?>
<svg
   xmlns:dc="http://purl.org/dc/elements/1.1/"
   xmlns:cc="http://creativecommons.org/ns#"
   xmlns:rdf="http://www.w3.org/1999/02/22-rdf-syntax-ns#"
   xmlns:svg="http://www.w3.org/2000/svg"
   xmlns="http://www.w3.org/2000/svg"
   xmlns:sodipodi="http://sodipodi.sourceforge.net/DTD/sodipodi-0.dtd"
   xmlns:inkscape="http://www.inkscape.org/namespaces/inkscape"
   width="56.445099mm"
   height="66.145844mm"
   viewBox="0 0 56.445099 66.145844"
   version="1.1"
   id="svg2457"
   inkscape:version="1.0.1 (0767f8302a, 2020-10-17)"
   sodipodi:docname="placeholder.svg">
  <defs
     id="defs2451" />
  <sodipodi:namedview
     id="base"
     pagecolor="#ffffff"
     bordercolor="#666666"
     borderopacity="1.0"
     inkscape:pageopacity="0.0"
     inkscape:pageshadow="2"
     inkscape:zoom="2.8"
     inkscape:cx="192.18817"
     inkscape:cy="121.393"
     inkscape:document-units="mm"
     inkscape:current-layer="layer1"
     inkscape:document-rotation="0"
     showgrid="false"
     inkscape:window-width="2560"
     inkscape:window-height="1376"
     inkscape:window-x="0"
     inkscape:window-y="27"
     inkscape:window-maximized="1" />
  <metadata
     id="metadata2454">
    <rdf:RDF>
      <cc:Work
         rdf:about="">
        <dc:format>image/svg+xml</dc:format>
        <dc:type
           rdf:resource="http://purl.org/dc/dcmitype/StillImage" />
        <dc:title></dc:title>
      </cc:Work>
    </rdf:RDF>
  </metadata>
  <g
     inkscape:label="Layer 1"
     inkscape:groupmode="layer"
     id="layer1"
     transform="translate(-123.82372,-86.446936)">
    <g
       id="g3033">
      <path
         style="fill:#0047b6;fill-opacity:1;stroke-width:0.511172"
         d="m 160.91515,116.85152 c 2.33607,5.06062 0.82809,10.63752 -3.93603,14.5582 -4.76414,3.92072 -10.53018,4.32455 -15.04384,1.05304 -0.51628,-0.39361 -1.01211,-0.81277 -1.47727,-1.25237 l 5.69445,-4.66703 -1.06835,-1.3035 -0.0255,-0.0357 c -0.0715,-0.0869 -0.13795,-0.1789 -0.20959,-0.27092 -0.01,-0.0155 -0.0205,-0.0307 -0.0357,-0.046 -0.006,-0.01 -0.0154,-0.0205 -0.0205,-0.0255 l -0.19936,-0.27602 c -0.54182,-0.75655 -1.02233,-1.5693 -1.43638,-2.42807 -2.32073,-5.07085 -0.79743,-10.64264 3.97692,-14.548 4.77947,-3.90537 10.54551,-4.28874 15.04895,-1.0019 0.50604,0.38849 0.99167,0.79743 1.44662,1.23704 l -5.67913,4.65168 1.04279,1.30861 c 0.0715,0.0869 0.14316,0.1789 0.21468,0.27602 l 0.2658,0.36293 c 0.53675,0.73099 1.02235,1.54376 1.44152,2.40763 z"
         id="path67-7" />
      <path
         style="fill:#0047b6;fill-opacity:1;stroke-width:0.511172"
         d="m 178.16213,103.41789 c -1.36481,-3.424866 -3.33796,-6.445894 -5.86315,-8.986428 -2.53031,-2.540531 -5.5309,-4.518772 -8.92508,-5.878493 -3.49132,-1.400614 -7.29956,-2.106033 -11.32761,-2.106033 -4.02805,0 -7.8414,0.710531 -11.3276,2.106033 -3.39419,1.359721 -6.39988,3.337962 -8.92507,5.878493 -2.53032,2.540534 -4.50345,5.561562 -5.86316,8.986428 -1.2626,3.16927 -1.96802,6.60947 -2.10605,10.2388 l 6.98775,0.01 c 0.0869,-0.49073 0.18914,-0.97635 0.30671,-1.46196 l 0.0155,-0.0665 0.0155,-0.0665 c 0.60317,-2.30028 1.56418,-4.43699 2.86255,-6.35389 1.29838,-1.9169 2.91368,-3.58332 4.79993,-4.94816 3.69066,-2.673434 8.26566,-4.084268 13.23427,-4.084268 4.96861,0 9.5436,1.410834 13.23427,4.084268 1.88623,1.36484 3.50154,3.03126 4.79992,4.94816 1.29837,1.9169 2.25939,4.05361 2.86258,6.35389 l 0.0155,0.0665 0.0155,0.0665 c 0.11766,0.48561 0.2198,0.97123 0.3067,1.46196 l 6.98773,-0.01 c -0.13273,-3.62933 -0.84329,-7.06442 -2.10589,-10.2388 z"
         id="path65-0" />
      <path
         style="fill:#0047b6;fill-opacity:1;stroke-width:0.511172"
         d="m 180.26818,125.38301 -6.98775,-0.01 c -0.0869,0.49073 -0.18914,0.97634 -0.3067,1.46194 l -0.0155,0.0665 -0.0154,0.0665 c -0.60319,2.30029 -1.56418,4.437 -2.86257,6.35388 -1.29838,1.9169 -2.91368,3.58333 -4.79991,4.94816 -3.69068,2.67344 -8.26568,4.08428 -13.23429,4.08428 -4.9686,0 -9.5436,-1.41084 -13.23427,-4.08428 -1.88638,-1.36481 -3.50168,-3.03126 -4.80006,-4.94814 -1.29837,-1.9169 -2.25939,-4.05361 -2.86257,-6.35388 l -0.0155,-0.0665 -0.0155,-0.0665 c -0.11747,-0.48561 -0.21979,-0.97121 -0.30669,-1.46194 l -6.98775,0.01 c 0.13795,3.62933 0.84345,7.06441 2.10605,10.23879 1.36482,3.42487 3.33796,6.4459 5.86315,8.98644 2.53032,2.54053 5.5309,4.51876 8.92508,5.8785 3.49132,1.40059 7.29955,2.10602 11.32761,2.10602 4.02805,0 7.8414,-0.71053 11.3276,-2.10602 3.39419,-1.35974 6.39989,-3.33797 8.92508,-5.8785 2.53031,-2.54054 4.50343,-5.56157 5.86316,-8.98644 1.26259,-3.17438 1.97314,-6.61459 2.10604,-10.23879 z"
         id="path4-6-9" />
    </g>
  </g>
</svg>
