<?xml version="1.0" encoding="UTF-8" standalone="no"?>
<svg
   xmlns:dc="http://purl.org/dc/elements/1.1/"
   xmlns:cc="http://creativecommons.org/ns#"
   xmlns:rdf="http://www.w3.org/1999/02/22-rdf-syntax-ns#"
   xmlns:svg="http://www.w3.org/2000/svg"
   xmlns="http://www.w3.org/2000/svg"
   xmlns:sodipodi="http://sodipodi.sourceforge.net/DTD/sodipodi-0.dtd"
   xmlns:inkscape="http://www.inkscape.org/namespaces/inkscape"
   width="132.82083mm"
   height="66.410416mm"
   viewBox="0 0 132.82083 66.410417"
   version="1.1"
   id="svg951"
   sodipodi:docname="OSUM_bleu.svg"
   inkscape:version="1.0.1 (0767f8302a, 2020-10-17)">
  <sodipodi:namedview
     pagecolor="#ffffff"
     bordercolor="#666666"
     borderopacity="1"
     objecttolerance="10"
     gridtolerance="10"
     guidetolerance="10"
     inkscape:pageopacity="0"
     inkscape:pageshadow="2"
     inkscape:window-width="2488"
     inkscape:window-height="1376"
     id="namedview11"
     showgrid="false"
     inkscape:zoom="3.4707393"
     inkscape:cx="210.31821"
     inkscape:cy="129.76027"
     inkscape:window-x="72"
     inkscape:window-y="27"
     inkscape:window-maximized="1"
     inkscape:current-layer="FR-2"
     inkscape:document-rotation="0" />
  <defs
     id="defs945">
    <clipPath
       clipPathUnits="userSpaceOnUse"
       id="clipPath17">
      <rect
         style="fill:#ffffff;stroke-width:1.88976"
         id="rect19"
         width="50.870094"
         height="62.219997"
         x="76.392967"
         y="79.836937" />
    </clipPath>
  </defs>
  <metadata
     id="metadata948">
    <rdf:RDF>
      <cc:Work
         rdf:about="">
        <dc:format>image/svg+xml</dc:format>
        <dc:type
           rdf:resource="http://purl.org/dc/dcmitype/StillImage" />
        <dc:title />
      </cc:Work>
    </rdf:RDF>
  </metadata>
  <g
     id="layer1"
     transform="translate(-1.7644586,-64.698008)">
    <g
       id="FR-2"
       transform="matrix(0.26458333,0,0,0.26458333,1.3675129,66.509081)"
       style="fill:#000000">
      <path
         style="fill:#0047b6;fill-opacity:1"
         d="m 120.54442,97.315628 c 4.57,9.900002 1.62,20.810002 -7.7,28.480002 -9.32,7.67 -20.599997,8.46 -29.429997,2.06 -1.01,-0.77 -1.98,-1.59 -2.89,-2.45 l 11.14,-9.13 -2.09,-2.55 -0.05,-0.07 c -0.14,-0.17 -0.27,-0.35 -0.41,-0.53 -0.02,-0.03 -0.04,-0.06 -0.07,-0.09 -0.01,-0.02 -0.03,-0.04 -0.04,-0.05 l -0.39,-0.54 c -1.06,-1.48 -2,-3.07 -2.81,-4.75 -4.54,-9.920002 -1.56,-20.820002 7.78,-28.460002 9.349997,-7.64 20.629997,-8.39 29.439997,-1.96 0.99,0.76 1.94,1.56 2.83,2.42 l -11.11,9.1 2.04,2.56 c 0.14,0.17 0.28,0.35 0.42,0.54 l 0.52,0.71 c 1.05,1.43 2,3.02 2.82,4.71 z"
         id="path67" />
      <g
         id="g844"
         transform="translate(-0.77443202,8.194368)">
        <path
           style="fill:#0047b6;fill-opacity:1"
           d="m 155.05885,62.84126 c -2.67,-6.7 -6.53,-12.61 -11.47,-17.58 -4.95,-4.97 -10.82,-8.84 -17.46,-11.5 -6.83,-2.74 -14.28,-4.12 -22.16,-4.12 -7.879995,0 -15.339995,1.39 -22.159995,4.12 -6.64,2.66 -12.52,6.53 -17.46,11.5 -4.95,4.97 -8.81,10.88 -11.47,17.58 -2.47,6.2 -3.85,12.93 -4.12,20.03 l 13.67,0.02 c 0.17,-0.96 0.37,-1.91 0.6,-2.86 l 0.03,-0.13 0.03,-0.13 c 1.18,-4.5 3.06,-8.68 5.6,-12.43 2.54,-3.75 5.7,-7.01 9.39,-9.68 7.22,-5.23 16.17,-7.99 25.889995,-7.99 9.72,0 18.67,2.76 25.89,7.99 3.69,2.67 6.85,5.93 9.39,9.68 2.54,3.75 4.42,7.93 5.6,12.43 l 0.03,0.13 0.03,0.13 c 0.23,0.95 0.43,1.9 0.6,2.86 l 13.67,-0.02 c -0.26,-7.1 -1.65,-13.82 -4.12,-20.03 z"
           id="path65" />
        <path
           style="fill:#0047b6;fill-opacity:1"
           d="m 159.17885,105.81126 -13.67,-0.02 c -0.17,0.96 -0.37,1.91 -0.6,2.86 l -0.03,0.13 -0.03,0.13 c -1.18,4.5 -3.06,8.68 -5.6,12.43 -2.54,3.75 -5.7,7.01 -9.39,9.68 -7.22,5.23 -16.17,7.99 -25.89,7.99 -9.719995,0 -18.669995,-2.76 -25.889995,-7.99 -3.69,-2.67 -6.85,-5.93 -9.39,-9.68 -2.54,-3.75 -4.42,-7.93 -5.6,-12.43 l -0.03,-0.13 -0.03,-0.13 c -0.23,-0.95 -0.43,-1.9 -0.6,-2.86 l -13.67,0.02 c 0.27,7.1 1.65,13.82 4.12,20.03 2.67,6.7 6.53,12.61 11.47,17.58 4.95,4.97 10.82,8.84 17.46,11.5 6.83,2.74 14.28,4.12 22.159995,4.12 7.88,0 15.34,-1.39 22.16,-4.12 6.64,-2.66 12.52,-6.53 17.46,-11.5 4.95,-4.97 8.81,-10.88 11.47,-17.58 2.47,-6.21 3.86,-12.94 4.12,-20.03 z"
           id="path4-6" />
      </g>
      <path
         class="st0"
         d="m 188.68557,167.14437 c -3.14,-0.86 -5.79,-2.25 -7.95,-4.16 l 7.44,-8.98 c 1.42,1.28 3.07,2.31 4.93,3.09 1.87,0.79 3.83,1.18 5.89,1.18 0.93,0 1.71,-0.09 2.32,-0.26 0.61,-0.17 0.92,-0.45 0.92,-0.85 0,-0.44 -0.42,-0.85 -1.25,-1.22 -0.84,-0.37 -2.26,-0.75 -4.27,-1.14 -5.3,-1.03 -9.17,-2.52 -11.6,-4.46 -2.43,-1.94 -3.64,-4.41 -3.64,-7.4 0,-2.16 0.72,-4.21 2.17,-6.15 1.45,-1.94 3.67,-3.53 6.66,-4.79 2.99,-1.25 6.7,-1.88 11.12,-1.88 4.32,0 7.94,0.52 10.86,1.55 2.92,1.03 5.22,2.31 6.88,3.83 l -6.92,8.17 c -2.26,-2.26 -5.6,-3.39 -10.01,-3.39 -1.33,0 -2.28,0.12 -2.87,0.37 -0.59,0.25 -0.88,0.56 -0.88,0.96 0,0.59 1.5,1.08 4.49,1.47 5.64,0.79 9.77,2.15 12.37,4.09 2.6,1.94 3.9,4.6 3.9,7.99 0,3.83 -1.57,7 -4.71,9.5 -3.14,2.5 -7.9,3.76 -14.29,3.76 -4.57,0.01 -8.42,-0.42 -11.56,-1.28 z m 67.41,-33.36 c 3.02,2.43 4.58,5.39 4.68,8.87 l -15.61,4.57 c 0.15,-3.78 -0.84,-5.67 -2.95,-5.67 -1.52,0 -2.61,0.58 -3.28,1.73 -0.66,1.15 -0.99,3.23 -0.99,6.22 0,2.95 0.36,4.93 1.07,5.96 0.71,1.03 1.75,1.55 3.13,1.55 1.03,0 1.82,-0.41 2.36,-1.22 0.54,-0.81 0.86,-2.03 0.96,-3.64 l 15.17,4.71 c 0,2.11 -0.72,4.04 -2.17,5.78 -1.45,1.74 -3.56,3.14 -6.33,4.2 -2.77,1.05 -6.08,1.58 -9.9,1.58 -6.97,0 -12.26,-1.64 -15.87,-4.93 -3.61,-3.29 -5.41,-8.03 -5.41,-14.21 0,-6.09 1.78,-10.8 5.34,-14.14 3.56,-3.34 8.58,-5.01 15.06,-5.01 6.8,0.01 11.72,1.22 14.74,3.65 z m 10.02,-9.53 c -1.4,-1.08 -2.1,-2.9 -2.1,-5.45 0,-2.55 0.7,-4.37 2.1,-5.45 1.4,-1.08 3.77,-1.62 7.11,-1.62 3.34,0 5.71,0.54 7.11,1.62 1.4,1.08 2.1,2.9 2.1,5.45 0,2.55 -0.7,4.37 -2.1,5.45 -1.4,1.08 -3.77,1.62 -7.11,1.62 -3.35,0 -5.71,-0.54 -7.11,-1.62 z m 15.57,43.44 h -16.94 v -36.82 h 16.94 z m 43.96,-15.16 h -23.42 c 0.25,1.82 0.76,3.04 1.55,3.68 0.78,0.64 1.96,0.96 3.53,0.96 2.4,0 3.88,-1.06 4.42,-3.17 l 13.62,3.68 c -0.84,3.53 -2.88,6.21 -6.15,8.03 -3.27,1.82 -7.23,2.72 -11.89,2.72 -6.97,0 -12.26,-1.64 -15.87,-4.93 -3.61,-3.29 -5.41,-8.03 -5.41,-14.21 0,-6.09 1.78,-10.8 5.34,-14.14 3.56,-3.34 8.58,-5.01 15.06,-5.01 6.33,0 11.18,1.62 14.54,4.86 3.36,3.24 5.04,7.61 5.04,13.11 0.01,1.86 -0.11,3.34 -0.36,4.42 z m -22.09,-10.09 c -0.69,0.74 -1.13,2.01 -1.33,3.83 h 7.95 c -0.15,-1.67 -0.5,-2.91 -1.07,-3.72 -0.57,-0.81 -1.44,-1.22 -2.61,-1.22 -1.27,0 -2.25,0.37 -2.94,1.11 z m 63.74,-9.06 c 2.04,2.16 3.06,5.2 3.06,9.13 v 25.18 h -16.94 v -20.77 c 0,-1.62 -0.2,-2.74 -0.59,-3.35 -0.39,-0.61 -1.06,-0.92 -1.99,-0.92 -1.23,0 -2.12,0.47 -2.69,1.4 -0.56,0.93 -0.85,2.38 -0.85,4.35 v 19.29 h -16.94 v -36.82 h 15.24 l 0.37,8.03 c 1.08,-2.85 2.7,-5.02 4.86,-6.52 2.16,-1.5 4.81,-2.25 7.95,-2.25 3.64,0.01 6.48,1.09 8.52,3.25 z m 42.49,0.4 c 3.02,2.43 4.58,5.39 4.68,8.87 l -15.61,4.57 c 0.15,-3.78 -0.84,-5.67 -2.95,-5.67 -1.52,0 -2.61,0.58 -3.28,1.73 -0.66,1.15 -0.99,3.23 -0.99,6.22 0,2.95 0.36,4.93 1.07,5.96 0.71,1.03 1.75,1.55 3.13,1.55 1.03,0 1.82,-0.41 2.36,-1.22 0.54,-0.81 0.86,-2.03 0.96,-3.64 l 15.17,4.71 c 0,2.11 -0.72,4.04 -2.17,5.78 -1.45,1.74 -3.56,3.14 -6.33,4.2 -2.77,1.05 -6.08,1.58 -9.9,1.58 -6.97,0 -12.26,-1.64 -15.87,-4.93 -3.61,-3.29 -5.41,-8.03 -5.41,-14.21 0,-6.09 1.78,-10.8 5.34,-14.14 3.56,-3.34 8.58,-5.01 15.06,-5.01 6.8,0.01 11.72,1.22 14.74,3.65 z m 46.87,18.75 h -23.42 c 0.25,1.82 0.76,3.04 1.55,3.68 0.78,0.64 1.96,0.96 3.53,0.96 2.4,0 3.88,-1.06 4.42,-3.17 l 13.62,3.68 c -0.84,3.53 -2.88,6.21 -6.15,8.03 -3.27,1.82 -7.23,2.72 -11.89,2.72 -6.97,0 -12.26,-1.64 -15.87,-4.93 -3.61,-3.29 -5.41,-8.03 -5.41,-14.21 0,-6.09 1.78,-10.8 5.34,-14.14 3.56,-3.34 8.58,-5.01 15.06,-5.01 6.33,0 11.18,1.62 14.54,4.86 3.36,3.24 5.04,7.61 5.04,13.11 0.01,1.86 -0.12,3.34 -0.36,4.42 z m -22.09,-10.09 c -0.69,0.74 -1.13,2.01 -1.33,3.83 h 7.95 c -0.15,-1.67 -0.5,-2.91 -1.07,-3.72 -0.57,-0.81 -1.44,-1.22 -2.61,-1.22 -1.28,0 -2.26,0.37 -2.94,1.11 z"
         id="path6-1"
         style="fill:#0047b6;fill-opacity:1" />
      <path
         class="st0"
         d="m 201.27557,96.864368 c -1.23,0 -2.2,-0.31 -2.87,-0.92 -0.67,-0.6 -1.11,-1.53 -1.34,-2.84 -0.21,-1.14 -0.31,-2.77 -0.31,-4.96 0,-2.19 0.1,-3.82 0.31,-4.96 0.24,-1.31 0.68,-2.24 1.34,-2.84 v 0 c 0.68,-0.61 1.64,-0.92 2.87,-0.92 1.23,0 2.2,0.31 2.87,0.92 0.67,0.6 1.1,1.53 1.34,2.84 0.21,1.15 0.31,2.78 0.31,4.96 0,2.19 -0.1,3.81 -0.31,4.96 -0.24,1.32 -0.68,2.24 -1.34,2.84 -0.68,0.62 -1.64,0.92 -2.87,0.92 z m 0,-15.46 c -0.5,0 -1.17,0.07 -1.54,0.41 v 0 c -0.22,0.2 -0.53,0.66 -0.72,1.72 -0.19,1.02 -0.28,2.57 -0.28,4.61 0,2.04 0.09,3.6 0.28,4.61 0.19,1.06 0.5,1.52 0.72,1.72 0.37,0.34 1.05,0.41 1.54,0.41 0.5,0 1.17,-0.07 1.54,-0.41 0.22,-0.2 0.52,-0.66 0.72,-1.72 0.19,-1.02 0.28,-2.57 0.28,-4.61 0,-2.04 -0.09,-3.59 -0.28,-4.61 -0.19,-1.06 -0.5,-1.52 -0.72,-1.72 -0.37,-0.34 -1.04,-0.41 -1.54,-0.41 z m 45.43,14.95 c -1.6,0 -2.85,-0.77 -3.61,-2.23 -0.67,-1.28 -1,-3.14 -1,-5.69 v -0.59 c 0,-2.65 0.34,-4.56 1.05,-5.82 0.79,-1.42 2.02,-2.17 3.56,-2.17 1.62,0 2.9,0.71 3.72,2.06 0.74,1.23 1.1,3.26 1.1,6.22 0,2.96 -0.36,4.99 -1.11,6.19 v 0 c -0.81,1.33 -2.1,2.03 -3.71,2.03 z m 0,-14.51 c -0.82,0 -1.38,0.35 -1.82,1.15 -0.53,0.95 -0.8,2.58 -0.8,4.86 v 0.59 c 0,2.18 0.26,3.79 0.77,4.77 0.42,0.8 0.99,1.16 1.84,1.16 0.93,0 1.57,-0.34 2.03,-1.08 v 0 c 0.37,-0.6 0.81,-1.97 0.81,-5.15 0,-3.18 -0.44,-4.58 -0.81,-5.19 -0.46,-0.76 -1.1,-1.11 -2.02,-1.11 z m 49.46,4.27 h -10.14 l 0.12,-1.1 c 0.22,-2.05 0.74,-3.49 1.59,-4.4 0.88,-0.94 2.12,-1.42 3.67,-1.42 1.89,0 2.91,0.89 3.43,1.64 0.67,0.97 1.08,2.34 1.24,4.2 z m -7.88,-1.98 h 5.67 c -0.16,-0.94 -0.42,-1.67 -0.76,-2.16 -0.24,-0.34 -0.68,-0.79 -1.8,-0.79 -1,0 -1.72,0.26 -2.22,0.79 v 0 c -0.29,0.31 -0.65,0.93 -0.89,2.16 z m -87.01,23.550002 c -6.76,0 -12.09,-1.77 -15.85,-5.27 -3.78,-3.520002 -5.69,-8.520002 -5.69,-14.860002 0,-6.35 1.91,-11.35 5.69,-14.86 3.76,-3.5 9.09,-5.27 15.85,-5.27 6.76,0 12.09,1.77 15.85,5.27 v 0 c 3.78,3.52 5.69,8.52 5.69,14.86 0,6.35 -1.91,11.35 -5.69,14.860002 -3.76,3.5 -9.09,5.27 -15.85,5.27 z m 0,-38.290002 c -6.24,0 -11.11,1.59 -14.49,4.74 -3.36,3.13 -5.06,7.64 -5.06,13.41 0,5.77 1.7,10.28 5.06,13.410002 3.38,3.15 8.25,4.74 14.49,4.74 6.24,0 11.11,-1.59 14.49,-4.74 3.36,-3.130002 5.06,-7.640002 5.06,-13.410002 0,-5.77 -1.7,-10.28 -5.06,-13.41 v 0 c -3.38,-3.14 -8.25,-4.74 -14.49,-4.74 z m 42.81,53.020002 h -18.92 V 68.144368 h 16.81 l 0.28,5.52 c 0.86,-1.37 1.9,-2.56 3.12,-3.53 2.26,-1.81 5.01,-2.72 8.17,-2.72 4.83,0 8.6,1.8 11.22,5.34 v 0 c 2.55,3.45 3.84,8.35 3.84,14.58 0,6.32 -1.32,11.33 -3.91,14.870002 -2.67,3.64 -6.44,5.49 -11.22,5.49 -2.7,0 -5.03,-0.68 -6.91,-2.03 -0.92,-0.66 -1.75,-1.44 -2.48,-2.35 z m -16.93,-1.99 h 14.95 V 95.184368 l 1.9,4.18 c 0.9,1.990002 2.16,3.570002 3.72,4.680002 1.54,1.1 3.48,1.66 5.76,1.66 4.17,0 7.31,-1.53 9.62,-4.67 2.34,-3.200002 3.53,-7.810002 3.53,-13.700002 0,-5.79 -1.16,-10.3 -3.45,-13.4 v 0 c -2.25,-3.05 -5.4,-4.53 -9.62,-4.53 -2.7,0 -5.03,0.77 -6.93,2.29 -1.92,1.54 -3.34,3.68 -4.2,6.38 l -1.66,5.16 -0.67,-13.09 h -12.94 v 50.280002 z m 65.05,-12.74 c -7.19,0 -12.76,-1.75 -16.54,-5.19 -3.81,-3.470002 -5.74,-8.500002 -5.74,-14.950002 0,-6.34 1.9,-11.34 5.65,-14.86 3.73,-3.5 9.03,-5.28 15.74,-5.28 6.57,0 11.69,1.73 15.23,5.14 3.55,3.42 5.35,8.07 5.35,13.82 0,1.96 -0.13,3.47 -0.39,4.64 l -0.18,0.77 h -23 c 0.28,1.13 0.67,1.66 0.98,1.92 0.6,0.49 1.58,0.74 2.91,0.74 2.18,0 2.76,-0.55 3.24,-1.78 l 0.31,-0.79 15.7,3.31 -0.23,0.99 c -0.9,3.8 -3.13,6.720002 -6.63,8.670002 -3.42,1.89 -7.58,2.85 -12.4,2.85 z m -0.88,-38.290002 c -6.19,0 -11.03,1.59 -14.38,4.74 -3.33,3.13 -5.02,7.64 -5.02,13.41 0,5.87 1.71,10.4 5.09,13.480002 3.4,3.1 8.52,4.67 15.2,4.67 4.47,0 8.31,-0.87 11.41,-2.6 2.72,-1.51 4.5,-3.620002 5.39,-6.400002 l -12.07,-2.54 c -0.89,1.6 -2.32,2.27 -4.73,2.27 -1.8,0 -3.2,-0.4 -4.16,-1.18 -1,-0.81 -1.62,-2.22 -1.9,-4.32 l -0.15,-1.13 h 23.72 c 0.13,-0.91 0.2,-2.06 0.2,-3.42 0,-5.19 -1.59,-9.36 -4.74,-12.39 -3.16,-3.05 -7.82,-4.59 -13.86,-4.59 z m 64.91,37.550002 h -18.92 V 85.194368 c 0,-1.86 -0.27,-2.56 -0.43,-2.81 -0.08,-0.13 -0.3,-0.46 -1.15,-0.46 -1.15,0 -1.6,0.52 -1.84,0.92 -0.32,0.53 -0.7,1.62 -0.7,3.83 v 20.290002 h -18.92 V 68.164368 h 17.19 l 0.24,5.24 c 0.96,-1.43 2.12,-2.62 3.47,-3.55 2.32,-1.61 5.19,-2.42 8.52,-2.42 3.9,0 7,1.2 9.23,3.55 v 0 c 2.21,2.34 3.33,5.64 3.33,9.81 v 26.150002 z m -16.94,-1.98 h 14.95 V 80.774368 c 0,-3.65 -0.94,-6.49 -2.79,-8.45 -1.86,-1.97 -4.4,-2.93 -7.78,-2.93 -2.92,0 -5.41,0.7 -7.39,2.07 -1.98,1.37 -3.5,3.41 -4.5,6.05 l -1.7,4.49 -0.54,-11.88 h -13.3 v 34.830002 h 14.95 V 86.654368 c 0,-2.17 0.32,-3.76 0.99,-4.86 0.74,-1.23 1.97,-1.88 3.54,-1.88 1.6,0 2.42,0.75 2.82,1.38 0.51,0.8 0.75,2.03 0.75,3.89 z"
         id="path8-8"
         style="fill:#0047b6;fill-opacity:1" />
      <path
         class="st1"
         d="m 282.56557,176.65437 v 14.27 c 0,2.79 -0.76,4.92 -2.27,6.37 -1.51,1.45 -3.64,2.18 -6.39,2.18 -2.75,0 -4.88,-0.73 -6.4,-2.18 -1.52,-1.45 -2.28,-3.58 -2.28,-6.37 v -14.27 h 1.7 v 13.93 c 0,2.41 0.6,4.23 1.79,5.47 1.19,1.24 2.92,1.86 5.19,1.86 2.27,0 4,-0.62 5.18,-1.86 1.18,-1.24 1.77,-3.06 1.77,-5.47 v -13.93 z m 28.17,0 v 22.48 h -1.64 v -16.76 l 0.2,-4.09 h -0.03 l -8.21,20.85 h -1.57 l -8.21,-20.85 h -0.03 l 0.2,4.09 v 16.76 h -1.63 v -22.48 h 2.55 l 6.78,17.03 1.12,3.44 h 0.03 l 1.09,-3.41 6.78,-17.06 z m 15.36,22.75 c -1.88,0 -3.52,-0.4 -4.9,-1.19 -1.39,-0.8 -2.45,-1.93 -3.2,-3.39 -0.75,-1.46 -1.12,-3.21 -1.12,-5.23 0,-2.02 0.37,-3.76 1.12,-5.23 0.75,-1.46 1.82,-2.59 3.2,-3.39 1.38,-0.79 3.02,-1.19 4.9,-1.19 1.91,0 3.55,0.4 4.92,1.19 1.37,0.8 2.44,1.92 3.18,3.39 0.75,1.46 1.12,3.21 1.12,5.23 0,2.02 -0.38,3.76 -1.12,5.23 -0.75,1.46 -1.81,2.59 -3.18,3.39 -1.37,0.8 -3.01,1.19 -4.92,1.19 z m 0,-1.46 c 1.54,0 2.88,-0.34 4,-1 1.12,-0.67 1.99,-1.63 2.61,-2.88 0.61,-1.25 0.92,-2.74 0.92,-4.46 0,-1.75 -0.31,-3.24 -0.92,-4.48 -0.61,-1.24 -1.48,-2.19 -2.61,-2.86 -1.12,-0.67 -2.46,-1 -4,-1 -1.52,0 -2.85,0.34 -3.99,1 -1.14,0.67 -2.01,1.62 -2.62,2.86 -0.61,1.24 -0.92,2.73 -0.92,4.48 0,1.73 0.31,3.21 0.92,4.46 0.61,1.25 1.49,2.21 2.62,2.88 1.14,0.66 2.47,1 3.99,1 z m 30.52,-17.88 v 19.08 h -2.28 l -10.39,-15.16 -1.29,-2.11 h -0.03 l 0.1,2.08 v 15.19 h -1.67 v -19.08 h 2.28 l 10.25,14.99 1.43,2.28 h 0.03 l -0.1,-2.08 v -15.19 z m 20.81,0 v 1.46 h -16.25 v -1.46 z m -7.25,0.64 v 18.43 h -1.7 v -18.43 z m 11.82,18.43 v -19.08 h 7.6 c 2.02,0 3.62,0.48 4.8,1.45 1.18,0.96 1.77,2.3 1.77,4 0,1.7 -0.59,3.04 -1.77,4 -1.18,0.96 -2.78,1.45 -4.8,1.45 h -5.89 v 8.18 z m 1.7,-9.64 h 5.86 c 1.59,0 2.8,-0.34 3.64,-1.02 0.84,-0.68 1.26,-1.67 1.26,-2.96 0,-1.27 -0.42,-2.25 -1.26,-2.95 -0.84,-0.69 -2.06,-1.04 -3.64,-1.04 h -5.86 z m 11.51,9.64 -5.82,-8.62 1.43,-0.72 6.4,9.33 h -2.01 z m 7.05,0 v -19.08 h 13.76 v 1.46 h -12.06 v 7.19 h 9.54 v 1.46 h -9.54 v 7.49 h 12.54 v 1.46 h -14.24 z m 8.35,-27.15 h 1.81 l -2.83,5.25 h -1.4 z m 8.51,27.15 7.9,-19.08 h 2.01 l 7.94,19.08 h -1.81 l -6.37,-15.53 -0.75,-1.98 -0.75,1.98 -6.37,15.53 z m 3.58,-5.93 v -1.46 h 10.66 v 1.46 z m 20.44,4.47 h 11.89 v 1.46 h -13.6 v -19.08 h 1.7 v 17.62 z"
         id="path10-7"
         style="fill:#4d4c4a;fill-opacity:1" />
    </g>
  </g>
</svg>
